<svg id="Capa_1" data-name="Capa 1" xmlns="http://www.w3.org/2000/svg" xmlns:xlink="http://www.w3.org/1999/xlink" viewBox="0 0 226.77 226.77"><defs><style>.cls-1{fill:none;}.cls-2{fill:#262424;}.cls-3{opacity:0.2;}.cls-4{clip-path:url(#clip-path);}.cls-5{opacity:0.25;}.cls-6{clip-path:url(#clip-path-2);}.cls-7{opacity:0.5;}.cls-8{clip-path:url(#clip-path-3);}.cls-9{opacity:0.75;}.cls-10{clip-path:url(#clip-path-4);}.cls-11{fill:#fff;}</style><clipPath id="clip-path"><rect class="cls-1" x="100.74" y="77" width="39.19" height="39.19"/></clipPath><clipPath id="clip-path-2"><rect class="cls-1" x="114.02" y="88.71" width="10.41" height="12.23"/></clipPath><clipPath id="clip-path-3"><rect class="cls-1" x="120.4" y="84.15" width="12.77" height="15.41"/></clipPath><clipPath id="clip-path-4"><rect class="cls-1" x="128.72" y="79.56" width="12.1" height="18.66"/></clipPath></defs><title>confrLOGO NEGRO</title><path class="cls-2" d="M113.39,194.26a80.88,80.88,0,1,1,80.87-80.87,81,81,0,0,1-80.87,80.87m0-148.76a67.89,67.89,0,1,0,67.89,67.89A68,68,0,0,0,113.39,45.5"/><path class="cls-2" d="M69.44,26.21a1.21,1.21,0,0,0,0,1.25,1.3,1.3,0,0,0,.54.62,1.35,1.35,0,0,0,.65.13,2,2,0,0,0,.66-.15c.22-.08.4-.16.56-.23a4.63,4.63,0,0,0,.51-.31l.42-.31-1.15-2.35c-.15.05-.32.1-.49.17a4.31,4.31,0,0,0-.46.19,2.88,2.88,0,0,0-1.23,1"/><path class="cls-2" d="M38.22,50.08a4.79,4.79,0,0,0,2.1,1.2A1.68,1.68,0,0,0,42,50.64a1.72,1.72,0,0,0,.44-1.74,6,6,0,0,0-3.56-3.13,2,2,0,0,0-2.1,2.38,4.74,4.74,0,0,0,1.46,1.93"/><path class="cls-2" d="M159.71,30a3.5,3.5,0,0,0,.82.63l.55.28a3.54,3.54,0,0,0,.6.19L164.57,26a5,5,0,0,0-.49-.43,5.09,5.09,0,0,0-.53-.33,2.47,2.47,0,0,0-1.13-.33,2.51,2.51,0,0,0-1,.23,3.08,3.08,0,0,0-.92.69,5.6,5.6,0,0,0-.75,1,4.26,4.26,0,0,0-.5,1.3,2.29,2.29,0,0,0,0,1.05,2.05,2.05,0,0,0,.48.83"/><path class="cls-2" d="M145.32,23.48a3.49,3.49,0,0,0,.92.49,4.19,4.19,0,0,0,.58.18,4.76,4.76,0,0,0,.63.09l2-5.54c-.23-.15-.42-.26-.56-.34l-.58-.24a2.27,2.27,0,0,0-1.16-.13,2.36,2.36,0,0,0-1,.39,3.17,3.17,0,0,0-.8.83,5,5,0,0,0-.56,1.14,4.21,4.21,0,0,0-.29,1.36,2.34,2.34,0,0,0,.21,1,2,2,0,0,0,.61.74"/><path class="cls-2" d="M123.44,18a2,2,0,0,0,.76.58,3.76,3.76,0,0,0,1,.27c.22,0,.43,0,.62,0a5,5,0,0,0,.62-.05l.69-5.85a4.74,4.74,0,0,0-.62-.2,5.12,5.12,0,0,0-.62-.11,2.44,2.44,0,0,0-1.16.13,2.39,2.39,0,0,0-.88.62,3,3,0,0,0-.59,1,5.52,5.52,0,0,0-.29,1.23,4,4,0,0,0,0,1.39,2.25,2.25,0,0,0,.44,1"/><path class="cls-2" d="M134.39,20.42a2.43,2.43,0,0,0,.6.31c.22.07.42.12.59.16a2.9,2.9,0,0,0,.59.09l.52,0,.6-2.55-.48-.19a4.71,4.71,0,0,0-.48-.14,3,3,0,0,0-1.58,0,1.23,1.23,0,0,0-.8,1,1.27,1.27,0,0,0,0,.83,1.29,1.29,0,0,0,.41.51"/><path class="cls-2" d="M89.39,16.9a2.5,2.5,0,0,0-.9-1.34A1.7,1.7,0,0,0,87,15.35a2,2,0,0,0-1.31.93A2.64,2.64,0,0,0,85.53,18Z"/><path class="cls-2" d="M174.17,32.81a1.66,1.66,0,0,0-.75-1.27,1.93,1.93,0,0,0-1.54-.44,2.53,2.53,0,0,0-1.42.9l3.23,2.36a2.5,2.5,0,0,0,.48-1.55"/><path class="cls-2" d="M25,71.1a4,4,0,0,0-.24.44,3.05,3.05,0,0,0-.34,1.53,1.22,1.22,0,0,0,.78,1,1.25,1.25,0,0,0,.81.14,1.28,1.28,0,0,0,.59-.3,2.45,2.45,0,0,0,.42-.53c.12-.2.21-.38.29-.53a3.73,3.73,0,0,0,.2-.56c.06-.19.1-.36.14-.5l-2.37-1.12L25,71.1"/><path class="cls-2" d="M195,53.9a2.61,2.61,0,0,0-1.63.4l2.32,3.27a2.52,2.52,0,0,0,1-1.32,1.67,1.67,0,0,0-.31-1.45,1.93,1.93,0,0,0-1.33-.9"/><path class="cls-2" d="M113.39,0A113.39,113.39,0,1,0,226.77,113.39,113.51,113.51,0,0,0,113.39,0m97.1,69.68a8.59,8.59,0,0,1,1.27-.42c.12.19.24.4.37.63s.22.44.3.64.18.43.27.68.15.49.2.71a5.7,5.7,0,0,1-.57.34l-.61.28-.6.24a5.31,5.31,0,0,1-.65.19,4.72,4.72,0,0,1-.36-.63c-.12-.23-.22-.45-.31-.66s-.17-.41-.26-.66a4.63,4.63,0,0,1-.22-.7,7.44,7.44,0,0,1,1.17-.64m-8.09-9.25c.1.15.21.32.32.52s.19.38.26.54.12.33.18.51a1.25,1.25,0,0,1-.2.23l-.31.27-.32.26-.27.2a4.64,4.64,0,0,1,.75.14,2.93,2.93,0,0,1,.77.3,3.67,3.67,0,0,1,.74.54,3.08,3.08,0,0,1,.61.82,3.42,3.42,0,0,1,.43,2.76,4.29,4.29,0,0,1-2.21,2.2l-5.74,3.14a8.84,8.84,0,0,1-.77-1.18,6.82,6.82,0,0,1-.57-1.29l5.07-2.77a3.37,3.37,0,0,0,1.29-1.08,1.21,1.21,0,0,0,0-1.28,3,3,0,0,0-.42-.56,1.56,1.56,0,0,0-.65-.38,2.19,2.19,0,0,0-.93,0,4.12,4.12,0,0,0-1.27.49l-4.71,2.58a8.59,8.59,0,0,1-.78-1.18,9.34,9.34,0,0,1-.57-1.29l9-4.92a4.94,4.94,0,0,1,.35.45m-3.56-5.07a4.17,4.17,0,0,1,0,1.76,4.28,4.28,0,0,1-.76,1.62,6,6,0,0,1-1.4,1.36c-.2.14-.41.28-.62.4s-.38.22-.52.29l-3.81-5.37a2.18,2.18,0,0,0-.92,1.68A3.32,3.32,0,0,0,191.5,59a7.88,7.88,0,0,0,.9,1,6.82,6.82,0,0,0,1.08.88,4.82,4.82,0,0,1-1.43,1.69,9.68,9.68,0,0,1-2.5-2.49,6.88,6.88,0,0,1-1.1-2.23,4.36,4.36,0,0,1-.07-2,4.52,4.52,0,0,1,.82-1.75,7.35,7.35,0,0,1,3.46-2.45,4.88,4.88,0,0,1,2-.23,4.47,4.47,0,0,1,1.84.59,5,5,0,0,1,1.6,1.51,4.66,4.66,0,0,1,.79,1.76m-8.45-15.27a5.29,5.29,0,0,1,1-.7L197.93,47a6,6,0,0,1-1.86,1.6l-2.32-2.68-8.92,7.71-.52-.49c-.17-.17-.33-.34-.47-.51s-.3-.35-.46-.56a7.33,7.33,0,0,1-.45-.64l8.92-7.71L189.53,41a5.59,5.59,0,0,1,.86-.9m-6.18-7.92a8.32,8.32,0,0,1,1,1L178.29,41a5.68,5.68,0,0,0-.6.79,1.36,1.36,0,0,0-.22.58.7.7,0,0,0,.1.47,1.74,1.74,0,0,0,.39.46l.27.21.32.2a6.3,6.3,0,0,1-.89,1.33c-.06.08-.13.15-.19.22a.86.86,0,0,1-.22.19,4.15,4.15,0,0,1-.66-.4c-.24-.18-.45-.35-.64-.52a3.45,3.45,0,0,1-1.28-2.25,3.54,3.54,0,0,1,1.12-2.66l7.28-8.28a8.89,8.89,0,0,1,1.14.85m-11.48-3.26a4.94,4.94,0,0,1,2,.93A4.52,4.52,0,0,1,176,31.26a4.08,4.08,0,0,1,.53,1.67,4.39,4.39,0,0,1-.2,1.78,6.13,6.13,0,0,1-.91,1.73A6.65,6.65,0,0,1,175,37l-.4.43-5.31-3.89a2.19,2.19,0,0,0-.35,1.88,3.43,3.43,0,0,0,1.29,1.61,7.91,7.91,0,0,0,2.48,1.2,4.29,4.29,0,0,1-.26,1,5.17,5.17,0,0,1-.55,1.07,9.54,9.54,0,0,1-3.17-1.59A6.71,6.71,0,0,1,167,37a4.3,4.3,0,0,1-.7-1.87,4.36,4.36,0,0,1,.23-1.91A7.23,7.23,0,0,1,169,29.77a4.92,4.92,0,0,1,1.78-.84,4.48,4.48,0,0,1,1.93,0M156.37,27.7a6.69,6.69,0,0,1,2.18-4,5,5,0,0,1,1.77-1,5,5,0,0,1,2-.2,5.31,5.31,0,0,1,2.09.69q.32.18.63.39a4,4,0,0,1,.58.48l2.07-3.66a6.36,6.36,0,0,1,.65.28c.21.1.41.21.61.32l.59.36a4.67,4.67,0,0,1,.58.41l-6.95,12.33a15.28,15.28,0,0,1-1.86-.56,15.15,15.15,0,0,1-2.1-1,6.8,6.8,0,0,1-1.61-1.23,4.78,4.78,0,0,1-1-1.63,4.3,4.3,0,0,1-.21-2m-14.3-8.34a6.19,6.19,0,0,1,1.06-1.88,5,5,0,0,1,3.53-1.8,5.46,5.46,0,0,1,2.18.34c.22.08.45.17.69.28a3.77,3.77,0,0,1,.65.37l1.43-4a5,5,0,0,1,.69.17c.22.06.44.13.65.21l.65.25c.22.1.43.2.64.32L149.42,27a14,14,0,0,1-1.92-.25,14.88,14.88,0,0,1-2.24-.65,6.8,6.8,0,0,1-1.79-.95,4.65,4.65,0,0,1-1.29-1.44,4.21,4.21,0,0,1-.54-1.91,6.08,6.08,0,0,1,.43-2.42m-10.72-.77a3,3,0,0,1,.77-1.46,3.14,3.14,0,0,1,1.26-.76,4.7,4.7,0,0,1,1.52-.21,7.51,7.51,0,0,1,1.58.2c.38.09.78.21,1.22.35l.06-.23a1.64,1.64,0,0,0,0-.79,1.16,1.16,0,0,0-.31-.55,1.87,1.87,0,0,0-.62-.38,5.49,5.49,0,0,0-.86-.26,6.71,6.71,0,0,0-2.31-.12,4.87,4.87,0,0,1-.19-1.05,3.7,3.7,0,0,1,.12-1.09,10.84,10.84,0,0,1,1.8,0,9.56,9.56,0,0,1,1.61.24,4.77,4.77,0,0,1,2.91,1.7,4,4,0,0,1,.4,3.36L139,23.3a16.18,16.18,0,0,1-1.74,0A11.3,11.3,0,0,1,135,23a9.65,9.65,0,0,1-1.77-.6,4,4,0,0,1-1.27-.92,2.75,2.75,0,0,1-.66-1.25,3.68,3.68,0,0,1,0-1.64m-11.26-3.25a6.28,6.28,0,0,1,.62-2.08A5,5,0,0,1,122,11.67a4.87,4.87,0,0,1,1.78-1,5.27,5.27,0,0,1,2.19-.17l.74.12a3.53,3.53,0,0,1,.72.22l.49-4.18a5.55,5.55,0,0,1,.71,0c.23,0,.46,0,.68.06s.46.06.69.1a5.88,5.88,0,0,1,.7.16l-1.67,14a13.88,13.88,0,0,1-1.93.2,15.49,15.49,0,0,1-2.33-.12,7.1,7.1,0,0,1-2-.53,4.54,4.54,0,0,1-1.58-1.1,4.46,4.46,0,0,1-1-1.74,6.23,6.23,0,0,1-.14-2.45m-5.27-9.73a5.33,5.33,0,0,1,.72-.07,5.73,5.73,0,0,1,.71,0c.22,0,.47,0,.73,0l.73.11c0,.23.05.45.06.67s0,.44,0,.66,0,.43,0,.66a5.43,5.43,0,0,1-.1.67c-.23,0-.47.05-.73.06h-.72l-.71,0a5,5,0,0,1-.73-.1,7.5,7.5,0,0,1-.09-1.33,9.12,9.12,0,0,1,.16-1.32m-1,4.35,4.08.11-.27,10.24a7.45,7.45,0,0,1-1.4.08,8.31,8.31,0,0,1-1.36-.15l.22-8.11-1.33,0a4.58,4.58,0,0,1-.07-.55,5.06,5.06,0,0,1,0-.54,4.59,4.59,0,0,1,.15-1m-10.91.39.61-.07h.6c.17,0,.35,0,.54.05a2.61,2.61,0,0,1,.13.28c0,.12.07.25.11.39s.07.27.1.4,0,.24.07.34a3.92,3.92,0,0,1,.43-.63,3.32,3.32,0,0,1,.61-.57,3.42,3.42,0,0,1,.8-.44,3.06,3.06,0,0,1,1-.21,3.37,3.37,0,0,1,2.68.78,4.3,4.3,0,0,1,1.07,2.93l.41,6.53a8.46,8.46,0,0,1-1.4.21,8.35,8.35,0,0,1-1.41,0l-.36-5.78a3.46,3.46,0,0,0-.43-1.62,1.22,1.22,0,0,0-1.18-.5,2.43,2.43,0,0,0-.68.14A1.37,1.37,0,0,0,106,13a2.09,2.09,0,0,0-.42.83,4.56,4.56,0,0,0-.09,1.35l.34,5.36a8.46,8.46,0,0,1-1.4.21,8.35,8.35,0,0,1-1.41,0l-.65-10.22c.19-.05.37-.1.55-.13m-8.57,1.28a4.06,4.06,0,0,1,.57-.12,5.9,5.9,0,0,1,.59-.06H96a1,1,0,0,1,.15.26c.06.12.11.25.16.38s.09.26.13.4.08.24.11.33a5,5,0,0,1,.88-1.26A2.52,2.52,0,0,1,99,10.83l.45-.05a1.25,1.25,0,0,1,.39,0c0,.12.09.27.13.43s.07.35.1.53.07.46.1.73a6.48,6.48,0,0,1,0,.76,2.74,2.74,0,0,0-.48,0l-.33.05a5.29,5.29,0,0,0-.73.19,1.88,1.88,0,0,0-.72.5,2.09,2.09,0,0,0-.47,1,4.35,4.35,0,0,0,0,1.68l.8,4.81c-.23.08-.46.14-.69.2l-.68.13c-.23,0-.45.07-.68.09a5.64,5.64,0,0,1-.73,0L93.77,11.82a5,5,0,0,1,.54-.19m-11.42,6a4.84,4.84,0,0,1,.46-1.91,4.47,4.47,0,0,1,1.19-1.53,5.22,5.22,0,0,1,2-1,4.65,4.65,0,0,1,1.94-.13,4.19,4.19,0,0,1,1.63.62A4.28,4.28,0,0,1,91.33,15a6.11,6.11,0,0,1,.79,1.78c.07.25.12.49.17.73s.07.43.09.58L86,19.85a2.19,2.19,0,0,0,1.26,1.45,3.39,3.39,0,0,0,2,0,7.56,7.56,0,0,0,1.29-.49,7.85,7.85,0,0,0,1.2-.7,4.72,4.72,0,0,1,.61.82,4.58,4.58,0,0,1,.48,1.1,9.5,9.5,0,0,1-3.21,1.48,6.65,6.65,0,0,1-2.46.26,4.41,4.41,0,0,1-1.9-.63A4.31,4.31,0,0,1,84,21.77a7.35,7.35,0,0,1-1.1-4.09m-7-3.9.43-.16,1.06,2.8,2.24-.85a5,5,0,0,1,.27.48c.06.14.13.29.19.45s.12.35.17.51a5.44,5.44,0,0,1,.13.57l-2.24.84,1.42,3.77a4.32,4.32,0,0,0,.44.89,1.44,1.44,0,0,0,.48.45,1,1,0,0,0,.54.12,2.4,2.4,0,0,0,.64-.16,3.71,3.71,0,0,0,.53-.25l.44-.27a4.48,4.48,0,0,1,.47.67,6.18,6.18,0,0,1,.31.65c0,.14.09.25.12.35a2.86,2.86,0,0,1,.07.28,8.09,8.09,0,0,1-1.68.87,4,4,0,0,1-2.87.18,3.48,3.48,0,0,1-1.87-2.23l-1.64-4.33-1.2.45-.24-.33ZM66.2,21.23a10.16,10.16,0,0,1,1.4-.84,4.79,4.79,0,0,1,3.33-.53,4,4,0,0,1,2.43,2.34L76,27.54c-.36.34-.8.71-1.33,1.12a11.86,11.86,0,0,1-1.93,1.16,9.1,9.1,0,0,1-1.74.65,3.83,3.83,0,0,1-1.56.1A2.73,2.73,0,0,1,68.11,30a3.51,3.51,0,0,1-1-1.3,2.84,2.84,0,0,1-.33-1.61,3,3,0,0,1,.49-1.38,4.62,4.62,0,0,1,1-1.13,7.44,7.44,0,0,1,1.35-.85q.53-.26,1.17-.51L70.72,23a1.59,1.59,0,0,0-.48-.62,1.11,1.11,0,0,0-.59-.23,1.87,1.87,0,0,0-.72.09,6.2,6.2,0,0,0-.83.35A6.84,6.84,0,0,0,66.23,24a4.63,4.63,0,0,1-.8-.69,3.42,3.42,0,0,1-.6-.91,9.91,9.91,0,0,1,1.37-1.16m-8.4,4.83a5,5,0,0,1,.48-.33,3.23,3.23,0,0,1,.52-.27q.27-.12.54-.21a1.34,1.34,0,0,1,.24.18c.09.09.19.19.28.3s.19.21.28.32.16.19.22.27a5.42,5.42,0,0,1,.34-1.5,2.51,2.51,0,0,1,1.1-1.24l.4-.22a1.71,1.71,0,0,1,.35-.15,4.1,4.1,0,0,1,.29.36l.3.45c.12.19.23.4.35.64a5.26,5.26,0,0,1,.3.7,2.19,2.19,0,0,0-.43.22l-.28.17a4.3,4.3,0,0,0-.61.45,1.73,1.73,0,0,0-.48.73A2.11,2.11,0,0,0,61.92,28a4.33,4.33,0,0,0,.65,1.55l2.54,4.16a5.68,5.68,0,0,1-.56.44l-.58.38-.6.34a6.8,6.8,0,0,1-.66.31l-5.35-8.76c.15-.14.3-.26.44-.37m-7,4.41A4.83,4.83,0,0,1,50,28.93a3.44,3.44,0,0,1-.07-1.49,3.61,3.61,0,0,1,.58-1.38,4.8,4.8,0,0,1,1.16-1.18,8.37,8.37,0,0,1,.84-.55,6.59,6.59,0,0,1,.83-.37,11.54,11.54,0,0,1,.58,1,5.86,5.86,0,0,1,.39,1l-.43.2a5,5,0,0,0-.54.33,1.94,1.94,0,0,0-.72.93A1.81,1.81,0,0,0,53,28.87l.26.35,1.92-1.4a5,5,0,0,1,.4.42,4.71,4.71,0,0,1,.33.42,4.29,4.29,0,0,1,.28.41,5.27,5.27,0,0,1,.25.48L54.56,31l4.77,6.55a8.87,8.87,0,0,1-1,.92,8.44,8.44,0,0,1-1.21.73L52.3,32.6l-1.31,1c-.16-.15-.29-.29-.41-.42l-.33-.42c-.1-.14-.19-.28-.27-.41a3.57,3.57,0,0,1-.25-.48l1.31-1Zm-9.26,8.38a4.53,4.53,0,0,1,.44-.43c.17-.15.32-.28.46-.38s.3-.19.46-.29a1.77,1.77,0,0,1,.27.14c.11.08.22.15.33.24l.33.26.26.21a3.72,3.72,0,0,1,0-.76,3,3,0,0,1,.12-.82,3.57,3.57,0,0,1,.35-.84,3.19,3.19,0,0,1,.66-.79,3.42,3.42,0,0,1,2.59-1A4.31,4.31,0,0,1,50.37,36l4.36,4.87a7.92,7.92,0,0,1-1,1,8.67,8.67,0,0,1-1.12.85l-3.86-4.31a3.48,3.48,0,0,0-1.34-1,1.22,1.22,0,0,0-1.24.33,3.48,3.48,0,0,0-.45.54,1.56,1.56,0,0,0-.22.72,2.18,2.18,0,0,0,.19.91A4,4,0,0,0,46.49,41l3.58,4a8.67,8.67,0,0,1-1,1,8.14,8.14,0,0,1-1.13.85l-6.83-7.63a5.2,5.2,0,0,1,.35-.44m-7.07,8A5.14,5.14,0,0,1,35.54,45a5.33,5.33,0,0,1,1.75-1.36,4.34,4.34,0,0,1,1.88-.41,4.75,4.75,0,0,1,1.88.45,7.2,7.2,0,0,1,1.79,1.18,6.88,6.88,0,0,1,1.38,1.61,4.65,4.65,0,0,1,.67,1.8,4,4,0,0,1-.17,1.91,6,6,0,0,1-2.87,3.27,4.25,4.25,0,0,1-1.86.4,4.86,4.86,0,0,1-1.87-.44,6.92,6.92,0,0,1-1.78-1.15A7.26,7.26,0,0,1,35,50.6a5.09,5.09,0,0,1-.69-1.82,4.27,4.27,0,0,1,.16-1.9m-10.08,7A7.13,7.13,0,0,1,25.5,51.2a12.53,12.53,0,0,1,1.09-1.38A7.53,7.53,0,0,1,28,48.67a4.4,4.4,0,0,1,.82.85c.24.33.47.66.7,1a8.11,8.11,0,0,0-1,.82,8.32,8.32,0,0,0-.8,1,3.61,3.61,0,0,0-.63,3.11,5.7,5.7,0,0,0,2.46,2.92q4,2.75,6.3-.65a6.72,6.72,0,0,0,.65-1.11,8.16,8.16,0,0,0,.43-1.22,6.78,6.78,0,0,1,1.18.29,7.83,7.83,0,0,1,1.11.46A9,9,0,0,1,38.58,58a11.26,11.26,0,0,1-.9,1.53,7.53,7.53,0,0,1-2.12,2.13,5.86,5.86,0,0,1-2.46.89,6.76,6.76,0,0,1-2.66-.24A9.52,9.52,0,0,1,27.78,61a8.67,8.67,0,0,1-2.17-2,6.55,6.55,0,0,1-1.19-2.41,5.93,5.93,0,0,1-.08-2.62M13.67,117.69a4.31,4.31,0,1,1,4.31-4.3,4.3,4.3,0,0,1-4.31,4.3M24.21,86.14,10.75,81.47a8.84,8.84,0,0,1,.35-1.37,9,9,0,0,1,.59-1.33l11.1,3.85L24.41,78a5.82,5.82,0,0,1,.63.14c.2.05.39.11.56.17l.58.22a6.4,6.4,0,0,1,.59.29Zm1.61-9.26a3.42,3.42,0,0,1-1.59-.38,3,3,0,0,1-1.28-1,3.13,3.13,0,0,1-.48-1.38,4.75,4.75,0,0,1,.1-1.54A7.72,7.72,0,0,1,23.1,71c.16-.35.36-.72.59-1.12l-.22-.1a1.57,1.57,0,0,0-.76-.19,1.17,1.17,0,0,0-.61.2,1.78,1.78,0,0,0-.5.52,6.38,6.38,0,0,0-.43.79,7.07,7.07,0,0,0-.6,2.24,5.93,5.93,0,0,1-1.05,0A4,4,0,0,1,18.47,73a11.31,11.31,0,0,1,.35-1.77,10.88,10.88,0,0,1,.56-1.53,4.83,4.83,0,0,1,2.27-2.49,3.94,3.94,0,0,1,3.36.3L30.39,70a15.24,15.24,0,0,1-.33,1.71,12,12,0,0,1-.78,2.11,9,9,0,0,1-.94,1.6,4.1,4.1,0,0,1-1.16,1.06,2.84,2.84,0,0,1-1.36.38M96.07,209.19a5.2,5.2,0,0,1-.54,1.42,6.7,6.7,0,0,1-1,1.33,12.44,12.44,0,0,1-1.43,1.31c-.56.44-1.19.9-1.9,1.37l-3.73,2.53,7.12,1.59c0,.13,0,.26-.05.41s0,.28-.08.42l-.09.35c0,.1-.07.21-.11.31L84.11,218l0-.33,5.64-3.84c.58-.39,1.12-.78,1.64-1.15a12.73,12.73,0,0,0,1.39-1.16,7.64,7.64,0,0,0,1-1.23,4.07,4.07,0,0,0,.59-1.37A2.73,2.73,0,0,0,94,206.5a3.93,3.93,0,0,0-2.34-1.27,6.57,6.57,0,0,0-2.16-.16q-1,.1-1.74.27c0-.22-.06-.46-.07-.72s0-.5,0-.75a15.07,15.07,0,0,1,1.83-.29,7.41,7.41,0,0,1,2.48.17,8.73,8.73,0,0,1,2,.73,4.47,4.47,0,0,1,1.43,1.15,3.84,3.84,0,0,1,.73,1.57,4.67,4.67,0,0,1-.07,2m15.68,5.14a12.67,12.67,0,0,1-.61,3.15,7.77,7.77,0,0,1-1.31,2.42,5.36,5.36,0,0,1-2,1.5,5.43,5.43,0,0,1-2.58.4,5.34,5.34,0,0,1-2.48-.78,5.17,5.17,0,0,1-1.72-1.76,8,8,0,0,1-.94-2.59,12.42,12.42,0,0,1-.14-3.2,12.23,12.23,0,0,1,.61-3.15,7.66,7.66,0,0,1,1.31-2.42,5.28,5.28,0,0,1,2-1.5,5.78,5.78,0,0,1,5.06.37,5.49,5.49,0,0,1,1.72,1.77,7.72,7.72,0,0,1,.93,2.59,12,12,0,0,1,.15,3.2m14.15,6.87-10.41.73-.14-.3,4.31-5.29c.44-.55.85-1.07,1.24-1.58a11.93,11.93,0,0,0,1-1.51,8.41,8.41,0,0,0,.64-1.47,4.15,4.15,0,0,0,.17-1.49,2.72,2.72,0,0,0-1-2.16,3.9,3.9,0,0,0-2.61-.55A6.77,6.77,0,0,0,117,208a14.89,14.89,0,0,0-1.59.76c-.09-.2-.19-.42-.28-.67s-.17-.47-.25-.71a16.89,16.89,0,0,1,1.67-.8,7.36,7.36,0,0,1,2.43-.54,8,8,0,0,1,2.16.11,4.54,4.54,0,0,1,1.7.69,3.79,3.79,0,0,1,1.15,1.3,4.76,4.76,0,0,1,.5,1.92,5.18,5.18,0,0,1-.11,1.52,6.83,6.83,0,0,1-.54,1.55,13.29,13.29,0,0,1-1,1.66c-.41.58-.89,1.2-1.43,1.87l-2.85,3.48,7.28-.51c0,.12,0,.26.06.4s0,.29.05.43,0,.25,0,.36,0,.22,0,.34m5.41-.72-.18-.28,3.48-5.86c.36-.6.69-1.18,1-1.74a12,12,0,0,0,.77-1.64,8,8,0,0,0,.42-1.55,4.14,4.14,0,0,0-.05-1.49,2.75,2.75,0,0,0-1.35-2,3.9,3.9,0,0,0-2.65-.16,7,7,0,0,0-2,.76c-.55.34-1,.67-1.46,1-.12-.19-.24-.39-.37-.62l-.35-.67a15.25,15.25,0,0,1,1.53-1,7.45,7.45,0,0,1,2.33-.9,8.58,8.58,0,0,1,2.14-.2,4.41,4.41,0,0,1,1.79.44,3.66,3.66,0,0,1,1.33,1.12,4.67,4.67,0,0,1,.78,1.82,5.15,5.15,0,0,1,.11,1.52,6.56,6.56,0,0,1-.32,1.61,12.18,12.18,0,0,1-.74,1.79c-.32.64-.7,1.32-1.14,2.06L134,218.31l7.13-1.57q.06.18.12.39c0,.14.07.28.1.42s.05.24.07.35,0,.22,0,.33Zm-17.92-21a86,86,0,1,1,86.05-86,86.14,86.14,0,0,1-86,86M198.93,76.75a7.93,7.93,0,0,1-.43-1.3l7.44-3.22L205.41,71a4.19,4.19,0,0,1,.47-.29,3.67,3.67,0,0,1,.48-.25,5.34,5.34,0,0,1,1-.31L209,73.91,199.59,78a9.22,9.22,0,0,1-.66-1.23m9,3.87a3.18,3.18,0,0,0-.08.83l0,1.18a5.33,5.33,0,0,1,0,1.07,3,3,0,0,1-.29.91,2.42,2.42,0,0,1-.63.74,3.75,3.75,0,0,1-1.08.55,3.06,3.06,0,0,1-1.4.15,3.2,3.2,0,0,1-1.33-.48A4.45,4.45,0,0,1,202,84.46a6.23,6.23,0,0,1-.86-1.69c-.1-.3-.19-.58-.25-.84s-.12-.51-.16-.75-.06-.5-.07-.74a7.31,7.31,0,0,1,0-.82,6.36,6.36,0,0,1,1.09-.17,7.14,7.14,0,0,1,1.13,0,6.81,6.81,0,0,0,0,1.29,5.19,5.19,0,0,0,.27,1.2,4.19,4.19,0,0,0,.24.55,2.22,2.22,0,0,0,.37.52,1.26,1.26,0,0,0,.47.33.75.75,0,0,0,.57,0,.78.78,0,0,0,.56-.49,2.56,2.56,0,0,0,.08-.88l-.05-1.28a3.91,3.91,0,0,1,.33-1.94,2.54,2.54,0,0,1,1.57-1.2,2.87,2.87,0,0,1,2.58.26,4.71,4.71,0,0,1,1.76,2.51,9.79,9.79,0,0,1,.36,1.49,11.66,11.66,0,0,1,.1,1.58,5.3,5.3,0,0,1-1.08.16,5.72,5.72,0,0,1-1,0,8.29,8.29,0,0,0,0-1.11,5.16,5.16,0,0,0-.25-1.19,2.24,2.24,0,0,0-.54-.93.7.7,0,0,0-.75-.14.66.66,0,0,0-.49.45m4.59,37.07a4.31,4.31,0,1,1,4.31-4.3,4.3,4.3,0,0,1-4.31,4.3"/><path class="cls-2" d="M106.35,207.51a3.49,3.49,0,0,0-3.18,1.37,8.63,8.63,0,0,0-1.44,4.71,8.83,8.83,0,0,0,.72,4.88,3.5,3.5,0,0,0,3,1.82,3.46,3.46,0,0,0,3.17-1.37,11.27,11.27,0,0,0,.71-9.59,3.46,3.46,0,0,0-2.94-1.82"/><path class="cls-2" d="M106.37,124.86a19.11,19.11,0,0,1-7.79-3.1,3.38,3.38,0,0,0-.54-.55l-.56.23a38,38,0,0,0-4.31,2.23,39.49,39.49,0,0,0,2.21-4.32c.08-.18.16-.37.23-.56-.51-.57-1-1.09-1-1.06a19.89,19.89,0,0,1-2.82-6.62A32,32,0,0,1,90,117a41.25,41.25,0,0,1-5.11,8.62,1.75,1.75,0,0,0-2.24.2l-.91.91a3,3,0,0,0-.33.28c-8,7.93-14,13.51-15.15,14.41A10.71,10.71,0,0,0,63.57,143a3,3,0,0,0-1.12,2.42,8.94,8.94,0,0,0,3,6,8.94,8.94,0,0,0,6,3h0a3.1,3.1,0,0,0,2.39-1.12,11.33,11.33,0,0,0,1.57-2.66c.89-1.17,6.48-7.11,14.4-15.15a3.11,3.11,0,0,0,.29-.33l.9-.91a1.75,1.75,0,0,0,.21-2.23,42,42,0,0,1,8.61-5.12,34.44,34.44,0,0,1,6.55-2"/><g class="cls-3"><g class="cls-4"><rect class="cls-2" x="98.67" y="96.9" width="42.22" height="0.5" transform="translate(-33.61 113.16) rotate(-45)"/><rect class="cls-2" x="100.45" y="98.68" width="42.22" height="0.5" transform="translate(-34.35 114.93) rotate(-45)"/><rect class="cls-2" x="102.67" y="100.45" width="41.32" height="0.5" transform="translate(-35.08 116.71) rotate(-45)"/><rect class="cls-2" x="106.05" y="101.91" width="38.75" height="0.5" transform="translate(-35.5 118.62) rotate(-45)"/><rect class="cls-2" x="110.8" y="103.35" width="33.46" height="0.5" transform="translate(-35.9 120.53) rotate(-45)"/><rect class="cls-2" x="114.55" y="105.13" width="29.53" height="0.5" transform="translate(-36.64 122.31) rotate(-45)"/><rect class="cls-2" x="96.89" y="95.12" width="42.22" height="0.5" transform="translate(-32.88 111.38) rotate(-45)"/><rect class="cls-2" x="95.57" y="93.35" width="41.32" height="0.5" transform="translate(-32.14 109.61) rotate(-45)"/><rect class="cls-2" x="95.39" y="91.26" width="38.75" height="0.5" transform="translate(-31.09 107.96) rotate(-45)"/><rect class="cls-2" x="96.6" y="89.14" width="33.46" height="0.5" transform="translate(-30.02 106.33) rotate(-45)"/><rect class="cls-2" x="96.79" y="87.37" width="29.53" height="0.5" transform="translate(-29.28 104.55) rotate(-45)"/><rect class="cls-2" x="114.8" y="86.19" width="0.5" height="31.38" transform="translate(-38.34 111.19) rotate(-45)"/><rect class="cls-2" x="113.05" y="88.83" width="0.5" height="29.6" transform="translate(-40.1 110.47) rotate(-45)"/><rect class="cls-2" x="111.29" y="91.77" width="0.5" height="27.22" transform="translate(-41.85 109.74) rotate(-45)"/><rect class="cls-2" x="109.54" y="94.58" width="0.5" height="25.11" transform="translate(-43.6 109.01) rotate(-45)"/><rect class="cls-2" x="116.55" y="84.44" width="0.5" height="31.38" transform="translate(-36.59 111.91) rotate(-45)"/><rect class="cls-2" x="118.3" y="82.69" width="0.5" height="31.38" transform="translate(-34.84 112.64) rotate(-45)"/><rect class="cls-2" x="120.06" y="80.93" width="0.5" height="31.38" transform="translate(-33.08 113.37) rotate(-45)"/><rect class="cls-2" x="121.81" y="79.18" width="0.5" height="31.38" transform="translate(-31.33 114.09) rotate(-45)"/><rect class="cls-2" x="123.56" y="77.43" width="0.5" height="31.38" transform="translate(-29.58 114.82) rotate(-45)"/><rect class="cls-2" x="125.32" y="75.68" width="0.5" height="31.38" transform="translate(-27.83 115.55) rotate(-45)"/><rect class="cls-2" x="127.07" y="74.81" width="0.5" height="29.6" transform="translate(-26.07 116.27) rotate(-45)"/><rect class="cls-2" x="128.82" y="74.25" width="0.5" height="27.22" transform="translate(-24.32 117) rotate(-45)"/><rect class="cls-2" x="130.57" y="73.55" width="0.5" height="25.11" transform="translate(-22.57 117.73) rotate(-45)"/></g></g><g class="cls-5"><g class="cls-6"><path class="cls-2" d="M119.23,92.17a7.85,7.85,0,0,1,.69-3.46h0a6.12,6.12,0,1,0,4.51,10.47,7.71,7.71,0,0,1-5.2-7"/></g></g><g class="cls-7"><g class="cls-8"><path class="cls-2" d="M127.17,89.28a9.28,9.28,0,0,1,1.31-5.12c-.21,0-.43,0-.65,0a7.71,7.71,0,1,0,5.34,13.52,9.32,9.32,0,0,1-6-8.39"/></g></g><path class="cls-2" d="M143,85.11a10,10,0,0,1,2.51,1.63A12.78,12.78,0,0,0,147.25,88a6,6,0,0,0,6.1-.28c1.68-1.13,2.71-4.49,2.51-6.71a10.76,10.76,0,0,0-18.22,4.89,5.51,5.51,0,0,1,5.33-.79"/><path class="cls-2" d="M147.53,99.06a10,10,0,0,0,2.34-2.78l.11-.16a13,13,0,0,1,2.35-3,6.82,6.82,0,0,1,6-1.37,10.8,10.8,0,0,0,.53-3.33,10.66,10.66,0,0,0-2.11-6.37c-.13,2.37-1.2,5.21-2.92,6.37a6.92,6.92,0,0,1-3.8,1.12,6.84,6.84,0,0,1-3.23-.8,13,13,0,0,1-1.9-1.35A9.21,9.21,0,0,0,142.64,86a4.58,4.58,0,0,0-5.07,1.23l-.15-.12a10.72,10.72,0,0,0,9.84,12.15,2.34,2.34,0,0,0,.27-.15"/><path class="cls-2" d="M153,93.93a12,12,0,0,0-2.16,2.73l-.11.16a14.12,14.12,0,0,1-1.83,2.39A10.77,10.77,0,0,0,158,92.73a5.89,5.89,0,0,0-5,1.2"/><g class="cls-9"><g class="cls-10"><path class="cls-2" d="M136.05,89a11.29,11.29,0,0,1,4.13-9.15,9.14,9.14,0,0,0-2.46-.24,9.33,9.33,0,1,0,3.1,18.23A11.3,11.3,0,0,1,136.05,89"/></g></g><path class="cls-11" d="M87.79,132.86l-.8-.8H80.38l-1.76,1.71h8.26l.91-.91"/><path class="cls-11" d="M84.73,136H76.35l-1.79,1.72h8.5L84.73,136"/><path class="cls-11" d="M70.39,141.6h8.9l1.65-1.72h-8.7c-.66.63-1.29,1.21-1.85,1.72"/><path class="cls-11" d="M65.71,145a5,5,0,0,0,.06.56H75.6l1.6-1.71H67.72a7.91,7.91,0,0,0-2,1.15"/><path class="cls-11" d="M67.79,148.79a6.44,6.44,0,0,0,.65.63h4.09c.1-.2.19-.41.28-.63a5.11,5.11,0,0,1,.81-1.08H66.81a8,8,0,0,0,1,1.08"/><path class="cls-2" d="M134.59,111.11H117.83a1.14,1.14,0,0,1-1.14-1.21,20.93,20.93,0,0,1,.26-2.09,22,22,0,0,1,.65-2.6,1.13,1.13,0,0,1,1.08-.79H160.9a1.15,1.15,0,0,1,1.14,1.22,18.5,18.5,0,0,1-.26,2.13,22.37,22.37,0,0,1-.65,2.56,1.12,1.12,0,0,1-1.08.78H142.33l-8.27,47.36a34.74,34.74,0,0,1-4,.23c-.66,0-1.31,0-2,0a12.13,12.13,0,0,1-1.8-.19Z"/><path class="cls-2" d="M135.17,70.33c-9.54-5-20.57-1.65-31.91,9.68a38.49,38.49,0,0,0-6.38,8.38,1.42,1.42,0,0,0-.25.34,33.52,33.52,0,0,0-3.31,8.39c-.17.9-2.06,11.48,3.07,19,0-.05,1.24,1.39,1.93,2.08s2.08,1.92,2,2c3.64,2.57,9,4.07,16.77,3.39l1.21-.1a33,33,0,0,0,9.5-3.56,1.52,1.52,0,0,0,.35-.26l.12-.07a1.75,1.75,0,0,0,.5-2.61c-.45-.58-.86-1.13-1.24-1.67a1.75,1.75,0,0,0-2.28-.55,25,25,0,0,1-11.15,3.15h-.34a14.25,14.25,0,0,1-15.14-15.09v-.39c.16-6.41,3.29-13.12,8.6-18.43A47.68,47.68,0,0,1,114,78.32a1.73,1.73,0,0,0,.33-.17,23,23,0,0,1,8.45-3.59,1.92,1.92,0,0,0,.58-.21,14.07,14.07,0,0,1,7.8,1.05,1.76,1.76,0,0,0,1.84-.27c.76-.64,1.55-1.24,2.35-1.8a1.74,1.74,0,0,0,.76-1.55,1.76,1.76,0,0,0-.93-1.45"/></svg>