<svg id="Capa_1" data-name="Capa 1" xmlns="http://www.w3.org/2000/svg" xmlns:xlink="http://www.w3.org/1999/xlink" viewBox="0 0 426.18 113.28"><defs><style>.cls-1,.cls-3{fill:none;}.cls-2{fill:#7b7c7f;}.cls-3{stroke:#bbbcbe;stroke-miterlimit:10;stroke-width:0.5px;}.cls-4{opacity:0.25;}.cls-5{clip-path:url(#clip-path);}.cls-6{fill:#bbd147;}.cls-7{opacity:0.5;}.cls-8{clip-path:url(#clip-path-2);}.cls-9{opacity:0.75;}.cls-10{clip-path:url(#clip-path-3);}.cls-11{fill:#41b6ef;}</style><clipPath id="clip-path"><rect class="cls-1" x="64.46" y="25.8" width="13.01" height="15.29"/></clipPath><clipPath id="clip-path-2"><rect class="cls-1" x="72.44" y="20.09" width="15.96" height="19.27"/></clipPath><clipPath id="clip-path-3"><rect class="cls-1" x="82.84" y="14.36" width="15.12" height="23.32"/></clipPath></defs><title>confrLOGOCOLORES HORIZON</title><path class="cls-2" d="M54.9,71a24,24,0,0,1-9.73-3.88s-.26-.3-.67-.69l-.71.29a47.2,47.2,0,0,0-5.39,2.78,50.53,50.53,0,0,0,2.77-5.39c.1-.23.2-.47.29-.7-.64-.71-1.21-1.36-1.22-1.33a24.71,24.71,0,0,1-3.52-8.28,40.7,40.7,0,0,1-2.33,7.37A51.14,51.14,0,0,1,28,71.93a2.19,2.19,0,0,0-2.79.26l-1.14,1.13a4.71,4.71,0,0,0-.41.35c-10,9.92-17.47,16.89-18.94,18a14.1,14.1,0,0,0-3.31,2,3.85,3.85,0,0,0-1.41,3c.05,3.75,2.76,6.59,3.72,7.48s3.73,3.67,7.48,3.72h.06a3.86,3.86,0,0,0,3-1.4,14,14,0,0,0,2-3.32c1.12-1.47,8.1-8.88,18-18.93a3.54,3.54,0,0,0,.35-.42l1.14-1.13a2.21,2.21,0,0,0,.26-2.8,52.31,52.31,0,0,1,10.76-6.39A42.35,42.35,0,0,1,54.9,71"/><line class="cls-3" x1="53.01" y1="55" x2="90.32" y2="17.69"/><line class="cls-3" x1="55.23" y1="57.22" x2="92.54" y2="19.91"/><line class="cls-3" x1="57.84" y1="59.05" x2="94.37" y2="22.53"/><line class="cls-3" x1="61.59" y1="59.74" x2="95.85" y2="25.49"/><line class="cls-3" x1="66.57" y1="59.2" x2="96.15" y2="29.62"/><line class="cls-3" x1="70.53" y1="59.68" x2="96.63" y2="33.58"/><line class="cls-3" x1="50.79" y1="52.79" x2="88.1" y2="15.47"/><line class="cls-3" x1="48.97" y1="50.17" x2="85.49" y2="13.65"/><line class="cls-3" x1="48.28" y1="46.42" x2="82.53" y2="12.17"/><line class="cls-3" x1="48.82" y1="41.44" x2="78.39" y2="11.86"/><line class="cls-3" x1="48.33" y1="37.48" x2="74.44" y2="11.38"/><line class="cls-3" x1="51.89" y1="28.39" x2="79.62" y2="56.13"/><line class="cls-3" x1="50.48" y1="31.37" x2="76.65" y2="57.53"/><line class="cls-3" x1="49.34" y1="34.61" x2="73.4" y2="58.67"/><line class="cls-3" x1="48.08" y1="37.73" x2="70.28" y2="59.93"/><line class="cls-3" x1="54.08" y1="26.2" x2="81.81" y2="53.93"/><line class="cls-3" x1="56.27" y1="24.01" x2="84" y2="51.74"/><line class="cls-3" x1="58.46" y1="21.82" x2="86.19" y2="49.55"/><line class="cls-3" x1="60.65" y1="19.63" x2="88.38" y2="47.36"/><line class="cls-3" x1="62.84" y1="17.44" x2="90.57" y2="45.17"/><line class="cls-3" x1="65.03" y1="15.25" x2="92.76" y2="42.98"/><line class="cls-3" x1="68.01" y1="13.84" x2="94.17" y2="40.01"/><line class="cls-3" x1="71.25" y1="12.7" x2="95.31" y2="36.76"/><line class="cls-3" x1="74.37" y1="11.44" x2="96.57" y2="33.64"/><g class="cls-4"><g class="cls-5"><path class="cls-6" d="M71,30.12a9.47,9.47,0,0,1,.86-4.32h0a7.64,7.64,0,1,0,5.64,13.08A9.61,9.61,0,0,1,71,30.12"/></g></g><g class="cls-7"><g class="cls-8"><path class="cls-6" d="M80.9,26.51a11.6,11.6,0,0,1,1.65-6.4,7.45,7.45,0,0,0-.82,0A9.63,9.63,0,1,0,88.4,37a11.66,11.66,0,0,1-7.5-10.48"/></g></g><path class="cls-6" d="M100.66,21.3a12.72,12.72,0,0,1,3.14,2A14.65,14.65,0,0,0,106,24.9a7.52,7.52,0,0,0,7.61-.34c2.1-1.41,3.4-5.62,3.15-8.39A13.45,13.45,0,0,0,94,22.28a6.89,6.89,0,0,1,6.66-1"/><path class="cls-6" d="M106.36,38.73a12.67,12.67,0,0,0,2.93-3.47l.13-.2a15.92,15.92,0,0,1,2.94-3.68,8.49,8.49,0,0,1,7.52-1.72,13.62,13.62,0,0,0,.66-4.16,13.45,13.45,0,0,0-2.63-8c-.17,3-1.5,6.52-3.66,8a8.58,8.58,0,0,1-4.74,1.41,8.46,8.46,0,0,1-4-1,16.16,16.16,0,0,1-2.38-1.68,11.87,11.87,0,0,0-2.85-1.87,5.72,5.72,0,0,0-6.33,1.55l-.19-.16a14.74,14.74,0,0,0-.13,1.77A13.47,13.47,0,0,0,106,38.92a1.63,1.63,0,0,0,.34-.19"/><path class="cls-6" d="M113.16,32.32a15.68,15.68,0,0,0-2.7,3.42l-.13.2a17.44,17.44,0,0,1-2.29,3,13.47,13.47,0,0,0,11.4-8.09,7.4,7.4,0,0,0-6.28,1.49"/><g class="cls-9"><g class="cls-10"><path class="cls-6" d="M92,26.11a14.16,14.16,0,0,1,5.16-11.44,11.52,11.52,0,0,0-3.07-.3,11.66,11.66,0,0,0,.83,23.31,11.81,11.81,0,0,0,3-.52,14.15,14.15,0,0,1-6-11"/></g></g><path class="cls-6" d="M31.68,81l-1-1H22.42l-2.2,2.15H30.55L31.68,81"/><path class="cls-6" d="M27.86,84.87H17.38L15.14,87H25.77l2.09-2.15"/><path class="cls-6" d="M9.93,91.91H21.05l2.06-2.14H12.24L9.93,91.91"/><path class="cls-6" d="M4.08,96.1a5.35,5.35,0,0,0,.08.7H16.44l2-2.14H6.6A10,10,0,0,0,4.08,96.1"/><path class="cls-6" d="M6.68,100.89a7.3,7.3,0,0,0,.82.8h5.1a8.38,8.38,0,0,0,.35-.8,7.86,7.86,0,0,1,1-1.34H5.46a9.62,9.62,0,0,0,1.22,1.34"/><path class="cls-11" d="M90.17,53.8H69.23a1.42,1.42,0,0,1-1.42-1.52,23.24,23.24,0,0,1,.32-2.61,27.06,27.06,0,0,1,.81-3.25,1.41,1.41,0,0,1,1.35-1h52.78A1.43,1.43,0,0,1,124.49,47a21,21,0,0,1-.32,2.66,29.43,29.43,0,0,1-.81,3.2,1.41,1.41,0,0,1-1.35,1H99.85L89.52,113a43,43,0,0,1-5,.28c-.82,0-1.63,0-2.45,0a16.69,16.69,0,0,1-2.25-.24Z"/><path class="cls-11" d="M90.9,2.82C79-3.43,65.19.75,51,14.93a48.46,48.46,0,0,0-8,10.46,2.24,2.24,0,0,0-.31.43,41.94,41.94,0,0,0-4.14,10.49c-.22,1.13-2.57,14.35,3.84,23.78,0-.05,1.55,1.75,2.41,2.6s2.6,2.41,2.52,2.44c4.55,3.22,11.23,5.09,21,4.24l1.51-.12A41.68,41.68,0,0,0,81.71,64.8a1.87,1.87,0,0,0,.45-.33l.14-.08a2.19,2.19,0,0,0,.63-3.27c-.57-.72-1.08-1.41-1.55-2.09a2.2,2.2,0,0,0-2.85-.69,31.19,31.19,0,0,1-13.94,3.95h-.42c-5.59.05-10.32-1.75-13.75-5.18a18.68,18.68,0,0,1-5.18-13.68c0-.19,0-.36,0-.49.19-8,4.11-16.4,10.74-23a59.25,59.25,0,0,1,8.44-7.1,3.17,3.17,0,0,0,.41-.21A28.52,28.52,0,0,1,75.41,8.11a2.58,2.58,0,0,0,.72-.26,17.49,17.49,0,0,1,9.75,1.3,2.19,2.19,0,0,0,2.3-.33c.95-.8,1.94-1.55,2.94-2.24a2.19,2.19,0,0,0,.95-1.94A2.22,2.22,0,0,0,90.9,2.82"/><path class="cls-6" d="M151.7,17.6a13.31,13.31,0,0,1,2.13-.18,14,14,0,0,1,2.19.18V35.39h7.47a8.84,8.84,0,0,1,.12,1c0,.31,0,.61,0,.89s0,.63,0,.94a9,9,0,0,1-.12,1H151.7Z"/><path class="cls-6" d="M174.23,29A2.48,2.48,0,0,0,174,27.8a1.81,1.81,0,0,0-.66-.71,2.77,2.77,0,0,0-1-.34,9.4,9.4,0,0,0-1.36-.09,10.62,10.62,0,0,0-3.45.63,8.11,8.11,0,0,1-.63-1.47,5.71,5.71,0,0,1-.21-1.65,15.93,15.93,0,0,1,2.64-.66,15.72,15.72,0,0,1,2.46-.21,7.26,7.26,0,0,1,4.87,1.5q1.75,1.5,1.76,4.8v9a25,25,0,0,1-2.55.63,17.37,17.37,0,0,1-3.39.3,13.61,13.61,0,0,1-2.81-.27,6,6,0,0,1-2.19-.9A4.24,4.24,0,0,1,166,36.74a5.4,5.4,0,0,1-.49-2.43,4.46,4.46,0,0,1,.61-2.42,4.74,4.74,0,0,1,1.59-1.56,7.06,7.06,0,0,1,2.18-.84,11.51,11.51,0,0,1,2.4-.25q.87,0,1.92.09Zm0,3.09-.78-.11a7,7,0,0,0-.75,0,4.45,4.45,0,0,0-2.33.52,1.84,1.84,0,0,0-.85,1.7,1.9,1.9,0,0,0,.33,1.2,1.94,1.94,0,0,0,.79.61,3.26,3.26,0,0,0,1,.24c.35,0,.66,0,.92,0a5.47,5.47,0,0,0,.9-.08l.78-.13Z"/><path class="cls-6" d="M203,35.09a11.86,11.86,0,0,1,.64,1.72A12.4,12.4,0,0,1,204,38.6a14.28,14.28,0,0,1-2.81.75,18.73,18.73,0,0,1-2.68.18,11.21,11.21,0,0,1-4.47-.83,8.92,8.92,0,0,1-3.23-2.31,9.84,9.84,0,0,1-2-3.52,14.35,14.35,0,0,1-.66-4.44A13.67,13.67,0,0,1,188.9,24a10.35,10.35,0,0,1,2-3.55,9,9,0,0,1,3.21-2.34,10.67,10.67,0,0,1,4.34-.84,18.1,18.1,0,0,1,2.65.18,11.64,11.64,0,0,1,2.63.75,6.57,6.57,0,0,1-.36,1.75c-.2.57-.42,1.15-.66,1.73a13.32,13.32,0,0,0-1.86-.51,10.69,10.69,0,0,0-1.92-.15,5.41,5.41,0,0,0-4.43,1.87A8.6,8.6,0,0,0,193,28.43q0,7.32,6.21,7.32a11.29,11.29,0,0,0,2-.15,13.25,13.25,0,0,0,1.89-.51"/><path class="cls-6" d="M213.55,39.53a8.06,8.06,0,0,1-3.28-.62A6.23,6.23,0,0,1,208,37.2a7.44,7.44,0,0,1-1.38-2.56,10.49,10.49,0,0,1-.47-3.18,10.78,10.78,0,0,1,.47-3.21,7.44,7.44,0,0,1,1.38-2.6,6.37,6.37,0,0,1,2.31-1.72,7.9,7.9,0,0,1,3.28-.63,8.11,8.11,0,0,1,3.31.63,6.57,6.57,0,0,1,2.34,1.72,7.28,7.28,0,0,1,1.38,2.6,11.47,11.47,0,0,1,.45,3.21,11.16,11.16,0,0,1-.45,3.18,7.27,7.27,0,0,1-1.38,2.56,6.43,6.43,0,0,1-2.34,1.71,8.28,8.28,0,0,1-3.31.62m0-3.24A2.6,2.6,0,0,0,216,35a7.12,7.12,0,0,0,.73-3.58,7.16,7.16,0,0,0-.73-3.59,2.59,2.59,0,0,0-2.42-1.24,2.55,2.55,0,0,0-2.38,1.24,7.15,7.15,0,0,0-.74,3.59,7.11,7.11,0,0,0,.74,3.58,2.55,2.55,0,0,0,2.38,1.25"/><path class="cls-6" d="M224.38,23.66a8.17,8.17,0,0,1,.84-.14,8.93,8.93,0,0,1,.94,0,8,8,0,0,1,.89,0c.26,0,.53.08.81.14a1.66,1.66,0,0,1,.17.43c.05.19.09.39.13.6s.08.42.11.62,0,.37.07.51a7.09,7.09,0,0,1,.72-.9,5.38,5.38,0,0,1,2.22-1.4,4.92,4.92,0,0,1,1.53-.22,5.17,5.17,0,0,1,4,1.44,6.5,6.5,0,0,1,1.33,4.53v9.9a12.69,12.69,0,0,1-4.26,0V30.41a5.11,5.11,0,0,0-.49-2.49,1.82,1.82,0,0,0-1.73-.87,3.92,3.92,0,0,0-1,.15,2.23,2.23,0,0,0-1,.58,3.17,3.17,0,0,0-.71,1.22,6.67,6.67,0,0,0-.27,2v8.13a12.69,12.69,0,0,1-4.26,0Z"/><path class="cls-6" d="M243,26.9h-2.46a8.16,8.16,0,0,1-.12-.87q0-.39,0-.81t0-.75a7.24,7.24,0,0,1,.12-.81H243v-.75a7.1,7.1,0,0,1,.44-2.57,5.06,5.06,0,0,1,1.24-1.89,5.51,5.51,0,0,1,1.94-1.17,7.23,7.23,0,0,1,2.47-.4,13,13,0,0,1,1.52.07,8.45,8.45,0,0,1,1.33.29,16.78,16.78,0,0,1-.19,1.78,8.27,8.27,0,0,1-.44,1.58l-.69-.14a5,5,0,0,0-1-.07,2.77,2.77,0,0,0-1.71.49,2.72,2.72,0,0,0-.72,2.12v.66h3.6a8.16,8.16,0,0,1,.12.87q0,.39,0,.81t0,.75a7.24,7.24,0,0,1-.12.81h-3.6V39.17a12.77,12.77,0,0,1-2.1.18,12.94,12.94,0,0,1-2.13-.18Z"/><path class="cls-6" d="M253.87,23.66c.31-.06.59-.11.86-.14a8,8,0,0,1,.88,0,6.54,6.54,0,0,1,.89.06c.29,0,.57.09.85.15a1.66,1.66,0,0,1,.17.43c.05.19.09.39.13.6s.08.42.11.63.05.39.07.53a7.75,7.75,0,0,1,1.62-1.67,3.87,3.87,0,0,1,2.4-.73l.69,0a2.59,2.59,0,0,1,.57.09,4.29,4.29,0,0,1,.09.69q0,.39,0,.81c0,.34,0,.71,0,1.11a8,8,0,0,1-.17,1.14,4.07,4.07,0,0,0-.73-.06h-.5a7,7,0,0,0-1.14.1,2.63,2.63,0,0,0-1.2.56,3.28,3.28,0,0,0-.94,1.35,6.77,6.77,0,0,0-.37,2.52V39.2a10.49,10.49,0,0,1-1.08.12l-1.05,0c-.35,0-.69,0-1,0s-.72-.06-1.1-.12Z"/><path class="cls-6" d="M273.37,29a2.48,2.48,0,0,0-.24-1.17,1.86,1.86,0,0,0-.65-.71,2.83,2.83,0,0,0-1-.34,9.54,9.54,0,0,0-1.37-.09,10.62,10.62,0,0,0-3.45.63,8.11,8.11,0,0,1-.63-1.47,5.71,5.71,0,0,1-.21-1.65,15.93,15.93,0,0,1,2.64-.66,15.72,15.72,0,0,1,2.46-.21,7.28,7.28,0,0,1,4.88,1.5q1.75,1.5,1.76,4.8v9a26,26,0,0,1-2.56.63,17.37,17.37,0,0,1-3.39.3,13.51,13.51,0,0,1-2.8-.27,6,6,0,0,1-2.19-.9,4.24,4.24,0,0,1-1.41-1.62,5.39,5.39,0,0,1-.5-2.43,4.46,4.46,0,0,1,.62-2.42,4.74,4.74,0,0,1,1.59-1.56,7,7,0,0,1,2.17-.84,11.51,11.51,0,0,1,2.4-.25q.87,0,1.92.09Zm0,3.09-.78-.11a7,7,0,0,0-.75,0,4.41,4.41,0,0,0-2.32.52,1.85,1.85,0,0,0-.86,1.7,1.9,1.9,0,0,0,.33,1.2,2,2,0,0,0,.8.61,3.26,3.26,0,0,0,1,.24c.35,0,.65,0,.91,0a5.47,5.47,0,0,0,.9-.08l.78-.13Z"/><path class="cls-6" d="M281.71,26.9h-1.94l-.16-.6,5.62-7.17h.68v4.53h3.63a4.41,4.41,0,0,1,.12.81q0,.36,0,.75t0,.81a5,5,0,0,1-.12.87h-3.63V33a5.58,5.58,0,0,0,.16,1.5,2.1,2.1,0,0,0,.43.9,1.42,1.42,0,0,0,.7.45,3.73,3.73,0,0,0,1,.12,5.26,5.26,0,0,0,.89-.08l.77-.13a6.58,6.58,0,0,1,.3,1.18,9.52,9.52,0,0,1,.09,1.1c0,.22,0,.4,0,.55s0,.3,0,.44a12.36,12.36,0,0,1-2.86.33,6.1,6.1,0,0,1-4.17-1.28,5.28,5.28,0,0,1-1.44-4.15Z"/><path class="cls-6" d="M296.17,32.72a3.27,3.27,0,0,0,1.26,2.61,5.07,5.07,0,0,0,3,.81,11.63,11.63,0,0,0,2.09-.2,11.75,11.75,0,0,0,2-.55,7,7,0,0,1,.57,1.44,7.37,7.37,0,0,1,.27,1.8,14.62,14.62,0,0,1-5.28.9,10.21,10.21,0,0,1-3.7-.6,6.58,6.58,0,0,1-2.52-1.67,6.66,6.66,0,0,1-1.44-2.53,10.59,10.59,0,0,1-.47-3.21,10.47,10.47,0,0,1,.48-3.21,7.51,7.51,0,0,1,1.43-2.61,6.75,6.75,0,0,1,2.34-1.76,7.66,7.66,0,0,1,3.25-.64,6.92,6.92,0,0,1,2.88.57,6.37,6.37,0,0,1,2.15,1.56,6.54,6.54,0,0,1,1.33,2.35,9.32,9.32,0,0,1,.45,2.93c0,.38,0,.75,0,1.12s-.07.67-.11.89Zm6.09-3a3.79,3.79,0,0,0-.79-2.33,2.53,2.53,0,0,0-2.06-.88,3,3,0,0,0-2.28.84,4,4,0,0,0-.93,2.37Z"/><path class="cls-6" d="M309.64,23.66c.3-.06.59-.11.86-.14a8,8,0,0,1,.88,0,6.54,6.54,0,0,1,.89.06c.29,0,.57.09.85.15a1.66,1.66,0,0,1,.17.43c0,.19.09.39.13.6s.08.42.11.63.05.39.07.53a7.75,7.75,0,0,1,1.62-1.67,3.83,3.83,0,0,1,2.4-.73l.69,0a2.59,2.59,0,0,1,.57.09,5.83,5.83,0,0,1,.09.69q0,.39,0,.81c0,.34,0,.71,0,1.11a8,8,0,0,1-.17,1.14,4.07,4.07,0,0,0-.73-.06h-.5a7,7,0,0,0-1.14.1,2.63,2.63,0,0,0-1.2.56,3.28,3.28,0,0,0-.94,1.35,6.74,6.74,0,0,0-.38,2.52V39.2a9.91,9.91,0,0,1-1.08.12l-1.05,0-1,0c-.35,0-.72-.06-1.1-.12Z"/><path class="cls-6" d="M321.7,23.66a8.17,8.17,0,0,1,.84-.14,8.86,8.86,0,0,1,.93,0,8,8,0,0,1,.9,0c.26,0,.53.08.81.14a1.66,1.66,0,0,1,.17.43c0,.19.09.39.13.6s.08.42.11.62.05.37.07.51a7.09,7.09,0,0,1,.72-.9,5.38,5.38,0,0,1,2.22-1.4,4.92,4.92,0,0,1,1.53-.22,5.17,5.17,0,0,1,4,1.44,6.5,6.5,0,0,1,1.33,4.53v9.9a12.69,12.69,0,0,1-4.26,0V30.41a5.11,5.11,0,0,0-.49-2.49,1.82,1.82,0,0,0-1.73-.87,3.92,3.92,0,0,0-1,.15,2.18,2.18,0,0,0-1,.58,3.17,3.17,0,0,0-.71,1.22,6.37,6.37,0,0,0-.27,2v8.13a12.69,12.69,0,0,1-4.26,0Z"/><path class="cls-6" d="M340.15,26.9h-2a6.87,6.87,0,0,1-.13-.83,8,8,0,0,1-.05-.82,7,7,0,0,1,.18-1.59h6.18V39.17a12.77,12.77,0,0,1-2.1.18,12.6,12.6,0,0,1-2.07-.18Zm-.63-5.85a11.55,11.55,0,0,1-.18-2,11.9,11.9,0,0,1,.18-2c.34-.06.71-.11,1.1-.14s.74,0,1.06,0,.71,0,1.11,0a11.19,11.19,0,0,1,1.11.14,8.78,8.78,0,0,1,.12,1c0,.33,0,.67,0,1s0,.65,0,1a8.86,8.86,0,0,1-.12,1,8.86,8.86,0,0,1-1.09.12l-1.1,0-1.08,0a9,9,0,0,1-1.11-.12"/><path class="cls-6" d="M357.82,17.24a10,10,0,0,1,1.07-.12l1,0,1.05,0a9.91,9.91,0,0,1,1.08.12V38.66a21.49,21.49,0,0,1-2.86.64,23.52,23.52,0,0,1-3.53.23,10.54,10.54,0,0,1-3-.44,7,7,0,0,1-2.57-1.38,6.51,6.51,0,0,1-1.75-2.44,10.12,10.12,0,0,1-.09-6.89,7.64,7.64,0,0,1,1.59-2.62A7.49,7.49,0,0,1,352.3,24a8.05,8.05,0,0,1,3.27-.64c.36,0,.74,0,1.13,0a5.83,5.83,0,0,1,1.12.2Zm0,9.63a6,6,0,0,0-1.92-.24,3.5,3.5,0,0,0-1.72.4A3.62,3.62,0,0,0,353,28.11a4.61,4.61,0,0,0-.7,1.59,8,8,0,0,0-.23,1.91,6.31,6.31,0,0,0,.3,2.08,3.49,3.49,0,0,0,.83,1.37,3,3,0,0,0,1.24.73A5.2,5.2,0,0,0,356,36a8.7,8.7,0,0,0,.93-.05,5.3,5.3,0,0,0,.93-.19Z"/><path class="cls-6" d="M373.9,29a2.48,2.48,0,0,0-.24-1.17,1.81,1.81,0,0,0-.66-.71,2.72,2.72,0,0,0-1-.34,9.54,9.54,0,0,0-1.37-.09,10.62,10.62,0,0,0-3.45.63,8.11,8.11,0,0,1-.63-1.47,5.71,5.71,0,0,1-.21-1.65,15.93,15.93,0,0,1,2.64-.66,15.72,15.72,0,0,1,2.46-.21,7.28,7.28,0,0,1,4.88,1.5Q378,26.3,378,29.6v9a25,25,0,0,1-2.55.63,17.37,17.37,0,0,1-3.39.3,13.51,13.51,0,0,1-2.8-.27,6,6,0,0,1-2.19-.9,4.24,4.24,0,0,1-1.41-1.62,5.39,5.39,0,0,1-.5-2.43,4.46,4.46,0,0,1,.62-2.42,4.74,4.74,0,0,1,1.59-1.56,7,7,0,0,1,2.17-.84,11.51,11.51,0,0,1,2.4-.25q.87,0,1.92.09Zm0,3.09-.78-.11a7,7,0,0,0-.75,0,4.41,4.41,0,0,0-2.32.52,1.85,1.85,0,0,0-.86,1.7,1.9,1.9,0,0,0,.33,1.2,2,2,0,0,0,.8.61,3.26,3.26,0,0,0,1,.24c.35,0,.65,0,.91,0a5.47,5.47,0,0,0,.9-.08l.78-.13Z"/><path class="cls-6" d="M391.12,17.24a10,10,0,0,1,1.07-.12l1,0,1,0a9.91,9.91,0,0,1,1.08.12V38.66a21.49,21.49,0,0,1-2.86.64,23.52,23.52,0,0,1-3.53.23,10.54,10.54,0,0,1-3-.44,7,7,0,0,1-2.57-1.38,6.51,6.51,0,0,1-1.75-2.44,10.12,10.12,0,0,1-.09-6.89,7.64,7.64,0,0,1,1.59-2.62A7.49,7.49,0,0,1,385.6,24a8.05,8.05,0,0,1,3.27-.64c.36,0,.74,0,1.13,0a5.83,5.83,0,0,1,1.12.2Zm0,9.63a6,6,0,0,0-1.92-.24,3.5,3.5,0,0,0-1.72.4,3.62,3.62,0,0,0-1.22,1.08,4.61,4.61,0,0,0-.7,1.59,8,8,0,0,0-.23,1.91,6.31,6.31,0,0,0,.3,2.08,3.49,3.49,0,0,0,.83,1.37,3,3,0,0,0,1.24.73,5.2,5.2,0,0,0,1.56.23,8.7,8.7,0,0,0,.93-.05,5.3,5.3,0,0,0,.93-.19Z"/><path class="cls-11" d="M169.84,48.81a24.14,24.14,0,0,1,2.48-.28c.82,0,1.63-.07,2.42-.07s1.61,0,2.45.07a24,24,0,0,1,2.52.28v50A49.05,49.05,0,0,1,173,100.3a54.84,54.84,0,0,1-8.22.52,25,25,0,0,1-7.11-1,16.42,16.42,0,0,1-6-3.22,15.27,15.27,0,0,1-4.1-5.71,23.83,23.83,0,0,1-.21-16.06,18,18,0,0,1,3.71-6.13A17.51,17.51,0,0,1,157,64.6a18.69,18.69,0,0,1,7.63-1.51c.84,0,1.71,0,2.62.11a14,14,0,0,1,2.63.45Zm0,22.47a19.5,19.5,0,0,0-2.28-.45,18.75,18.75,0,0,0-2.2-.11,8.25,8.25,0,0,0-4,1,8.46,8.46,0,0,0-2.83,2.52,10.66,10.66,0,0,0-1.65,3.71,18.49,18.49,0,0,0-.52,4.44,14.71,14.71,0,0,0,.7,4.87A8.15,8.15,0,0,0,159,90.39a7.15,7.15,0,0,0,2.91,1.72,12.13,12.13,0,0,0,3.64.52,20.57,20.57,0,0,0,2.17-.1,11.93,11.93,0,0,0,2.17-.46Z"/><path class="cls-11" d="M197.21,84.93c.19,2.8,1.16,4.83,2.94,6.09a11.81,11.81,0,0,0,7,1.89,27.22,27.22,0,0,0,4.86-.45,28.34,28.34,0,0,0,4.73-1.3,16.56,16.56,0,0,1,1.33,3.36,17.58,17.58,0,0,1,.63,4.2,34.12,34.12,0,0,1-12.32,2.1,24,24,0,0,1-8.65-1.4,15.42,15.42,0,0,1-5.88-3.88,15.79,15.79,0,0,1-3.36-5.92,24.78,24.78,0,0,1-1.08-7.49,24.37,24.37,0,0,1,1.12-7.49,17.45,17.45,0,0,1,3.32-6.09,15.76,15.76,0,0,1,5.46-4.09,17.87,17.87,0,0,1,7.6-1.51,16.25,16.25,0,0,1,6.72,1.33,14.77,14.77,0,0,1,5,3.64,15.26,15.26,0,0,1,3.12,5.5,21.65,21.65,0,0,1,1.05,6.82c0,.89,0,1.76-.11,2.63s-.15,1.55-.24,2.06ZM211.42,78a8.79,8.79,0,0,0-1.86-5.42,5.87,5.87,0,0,0-4.79-2.07,6.93,6.93,0,0,0-5.32,2A9.15,9.15,0,0,0,197.28,78Z"/><path class="cls-11" d="M228.36,48.81a30.22,30.22,0,0,1,5-.42,29.76,29.76,0,0,1,4.9.42V85.56a20.4,20.4,0,0,0,.24,3.5,5.28,5.28,0,0,0,.77,2.07,2.65,2.65,0,0,0,1.37,1,6.63,6.63,0,0,0,2.1.28,10.83,10.83,0,0,0,1.22-.07,9,9,0,0,0,1.3-.21,21.75,21.75,0,0,1,.77,5.6v1a4.36,4.36,0,0,1-.14,1,13.08,13.08,0,0,1-2.7.49c-1,.09-2,.14-2.9.14a12.35,12.35,0,0,1-8.65-3q-3.26-3-3.25-9.7Z"/><path class="cls-11" d="M276.52,58.33H264a22.45,22.45,0,0,1-.42-4.41,21.77,21.77,0,0,1,.42-4.27h35.35a21.77,21.77,0,0,1,.42,4.27,22.45,22.45,0,0,1-.42,4.41H286.81V100c-.84.09-1.68.18-2.52.25s-1.66.1-2.45.1-1.65,0-2.56-.07-1.83-.14-2.76-.28Z"/><path class="cls-11" d="M307.32,84.93q.27,4.2,2.94,6.09a11.81,11.81,0,0,0,7,1.89,27.3,27.3,0,0,0,4.86-.45,28.34,28.34,0,0,0,4.73-1.3,17.17,17.17,0,0,1,1.33,3.36,17.58,17.58,0,0,1,.63,4.2,34.12,34.12,0,0,1-12.32,2.1,24,24,0,0,1-8.65-1.4A15.42,15.42,0,0,1,302,95.54a15.66,15.66,0,0,1-3.36-5.92,24.78,24.78,0,0,1-1.08-7.49,24.37,24.37,0,0,1,1.12-7.49A17.45,17.45,0,0,1,302,68.55a15.76,15.76,0,0,1,5.46-4.09A17.83,17.83,0,0,1,315,63a16.25,16.25,0,0,1,6.72,1.33,14.77,14.77,0,0,1,5,3.64,15.26,15.26,0,0,1,3.12,5.5,21.65,21.65,0,0,1,1.05,6.82c0,.89,0,1.76-.11,2.63s-.15,1.55-.24,2.06ZM321.53,78a8.85,8.85,0,0,0-1.86-5.42,5.87,5.87,0,0,0-4.79-2.07,6.92,6.92,0,0,0-5.32,2A9.15,9.15,0,0,0,307.39,78Z"/><path class="cls-11" d="M338.75,63.79a18.58,18.58,0,0,1,2-.31,20.27,20.27,0,0,1,2.17-.11,18.53,18.53,0,0,1,2.1.11c.6.07,1.23.17,1.89.31a3.85,3.85,0,0,1,.38,1c.12.44.22.91.32,1.4s.17,1,.24,1.43.13.87.18,1.19a15.45,15.45,0,0,1,1.68-2.1,12.06,12.06,0,0,1,2.27-1.89,12.37,12.37,0,0,1,2.91-1.36,11.44,11.44,0,0,1,3.57-.53q6.15,0,9.27,3.36t3.12,10.57V100a29.62,29.62,0,0,1-9.94,0V79.54a11.92,11.92,0,0,0-1.16-5.81,4.24,4.24,0,0,0-4-2,9.23,9.23,0,0,0-2.45.35A5.21,5.21,0,0,0,351,73.42a7.25,7.25,0,0,0-1.64,2.83,14.9,14.9,0,0,0-.63,4.76v19a29.62,29.62,0,0,1-9.94,0Z"/><path class="cls-11" d="M381.8,71.35h-4.69a15.69,15.69,0,0,1-.32-1.92,18.78,18.78,0,0,1-.1-1.93,16.49,16.49,0,0,1,.42-3.71h14.42V100a29.85,29.85,0,0,1-4.9.42,29.4,29.4,0,0,1-4.83-.42ZM380.33,57.7a26.89,26.89,0,0,1-.42-4.69,27.87,27.87,0,0,1,.42-4.69c.79-.14,1.64-.24,2.55-.31s1.74-.11,2.49-.11,1.65,0,2.59.11,1.79.17,2.59.31a21.77,21.77,0,0,1,.28,2.35c0,.77.07,1.55.07,2.34s0,1.52-.07,2.31a21.16,21.16,0,0,1-.28,2.38A19.85,19.85,0,0,1,388,58c-.91.05-1.76.07-2.55.07s-1.59,0-2.52-.07a19.57,19.57,0,0,1-2.59-.28"/><path class="cls-11" d="M408.33,84.23a13.77,13.77,0,0,1-6.13-3.32q-2.2-2.2-2.2-6.62A10,10,0,0,1,403.81,66q3.81-3,10.4-3a30.35,30.35,0,0,1,5.39.49A35.25,35.25,0,0,1,425,64.91a19.67,19.67,0,0,1-.7,3.78A18.75,18.75,0,0,1,423,72.12a28.83,28.83,0,0,0-3.71-1.22,17,17,0,0,0-4.27-.53,7.71,7.71,0,0,0-3.71.74,2.48,2.48,0,0,0-1.33,2.34,2.41,2.41,0,0,0,.94,2.17,10.9,10.9,0,0,0,2.7,1.19l4,1.19a20,20,0,0,1,3.53,1.37,9.75,9.75,0,0,1,2.7,2,8.58,8.58,0,0,1,1.75,2.94,12.69,12.69,0,0,1,.63,4.27,10.95,10.95,0,0,1-4.24,8.72,15.75,15.75,0,0,1-5,2.59,21.71,21.71,0,0,1-6.65.94c-1.12,0-2.15,0-3.08-.1a24.83,24.83,0,0,1-2.7-.35q-1.29-.25-2.55-.6a28.11,28.11,0,0,1-2.73-.91,19.76,19.76,0,0,1,.66-3.81,24.05,24.05,0,0,1,1.37-3.75,29.32,29.32,0,0,0,4.37,1.37,20.19,20.19,0,0,0,4.31.45,15.19,15.19,0,0,0,2.13-.17,8.18,8.18,0,0,0,2.14-.63,5.13,5.13,0,0,0,1.64-1.19,3.25,3.25,0,0,0-.35-4.34,10,10,0,0,0-2.83-1.3Z"/></svg>